<?xml version="1.0" encoding="UTF-8"?>
<!--Generator: Apple Native CoreSVG 149-->
<!DOCTYPE svg
PUBLIC "-//W3C//DTD SVG 1.1//EN"
       "http://www.w3.org/Graphics/SVG/1.1/DTD/svg11.dtd">
<svg version="1.1" xmlns="http://www.w3.org/2000/svg" xmlns:xlink="http://www.w3.org/1999/xlink" width="3300" height="2200">
 <!--glyph: "uni1002F5.medium", point size: 100.000000, font version: "Version 16.0d18e1", template writer version: "8"-->
 <g id="Notes">
  <rect height="2200" id="artboard" style="fill:white;opacity:1" width="3300" x="0" y="0"/>
  <line id="" style="fill:none;stroke:black;opacity:1;stroke-width:0.5;" x1="263" x2="3036" y1="292" y2="292"/>
  <text style="stroke:none;fill:black;font-family:-apple-system,&quot;SF Pro Display&quot;,&quot;SF Pro Text&quot;,Helvetica,sans-serif;font-weight:bold;" transform="matrix(1 0 0 1 263 322)">Weight/Scale Variations</text>
  <text style="stroke:none;fill:black;font-family:-apple-system,&quot;SF Pro Display&quot;,&quot;SF Pro Text&quot;,Helvetica,sans-serif;text-anchor:middle;" transform="matrix(1 0 0 1 559.711 322)">Ultralight</text>
  <text style="stroke:none;fill:black;font-family:-apple-system,&quot;SF Pro Display&quot;,&quot;SF Pro Text&quot;,Helvetica,sans-serif;text-anchor:middle;" transform="matrix(1 0 0 1 856.422 322)">Thin</text>
  <text style="stroke:none;fill:black;font-family:-apple-system,&quot;SF Pro Display&quot;,&quot;SF Pro Text&quot;,Helvetica,sans-serif;text-anchor:middle;" transform="matrix(1 0 0 1 1153.13 322)">Light</text>
  <text style="stroke:none;fill:black;font-family:-apple-system,&quot;SF Pro Display&quot;,&quot;SF Pro Text&quot;,Helvetica,sans-serif;text-anchor:middle;" transform="matrix(1 0 0 1 1449.84 322)">Regular</text>
  <text style="stroke:none;fill:black;font-family:-apple-system,&quot;SF Pro Display&quot;,&quot;SF Pro Text&quot;,Helvetica,sans-serif;text-anchor:middle;" transform="matrix(1 0 0 1 1746.56 322)">Medium</text>
  <text style="stroke:none;fill:black;font-family:-apple-system,&quot;SF Pro Display&quot;,&quot;SF Pro Text&quot;,Helvetica,sans-serif;text-anchor:middle;" transform="matrix(1 0 0 1 2043.27 322)">Semibold</text>
  <text style="stroke:none;fill:black;font-family:-apple-system,&quot;SF Pro Display&quot;,&quot;SF Pro Text&quot;,Helvetica,sans-serif;text-anchor:middle;" transform="matrix(1 0 0 1 2339.98 322)">Bold</text>
  <text style="stroke:none;fill:black;font-family:-apple-system,&quot;SF Pro Display&quot;,&quot;SF Pro Text&quot;,Helvetica,sans-serif;text-anchor:middle;" transform="matrix(1 0 0 1 2636.69 322)">Heavy</text>
  <text style="stroke:none;fill:black;font-family:-apple-system,&quot;SF Pro Display&quot;,&quot;SF Pro Text&quot;,Helvetica,sans-serif;text-anchor:middle;" transform="matrix(1 0 0 1 2933.4 322)">Black</text>
  <line id="" style="fill:none;stroke:black;opacity:1;stroke-width:0.5;" x1="263" x2="3036" y1="1903" y2="1903"/>
  <g id="" transform="matrix(1 0 0 1 263 1933)">
   <path d="M9.24805 0.830078C13.5547 0.830078 17.1387-2.74414 17.1387-7.05078C17.1387-11.3574 13.5449-14.9316 9.23828-14.9316C4.94141-14.9316 1.36719-11.3574 1.36719-7.05078C1.36719-2.74414 4.95117 0.830078 9.24805 0.830078ZM9.24805-0.654297C5.70312-0.654297 2.87109-3.49609 2.87109-7.05078C2.87109-10.6055 5.69336-13.4473 9.23828-13.4473C12.793-13.4473 15.6348-10.6055 15.6445-7.05078C15.6543-3.49609 12.8027-0.654297 9.24805-0.654297ZM6.39648-6.31836L8.50586-6.31836L8.50586-4.19922C8.50586-3.75977 8.79883-3.45703 9.22852-3.45703C9.67773-3.45703 9.9707-3.75977 9.9707-4.19922L9.9707-6.31836L12.0996-6.31836C12.5391-6.31836 12.8418-6.61133 12.8418-7.04102C12.8418-7.48047 12.5391-7.7832 12.0996-7.7832L9.9707-7.7832L9.9707-9.89258C9.9707-10.3418 9.67773-10.6445 9.22852-10.6445C8.79883-10.6445 8.50586-10.3418 8.50586-9.89258L8.50586-7.7832L6.39648-7.7832C5.94727-7.7832 5.64453-7.48047 5.64453-7.04102C5.64453-6.61133 5.94727-6.31836 6.39648-6.31836Z"/>
  </g>
  <g id="" transform="matrix(1 0 0 1 281.506 1933)">
   <path d="M11.709 2.91016C17.1582 2.91016 21.6699-1.61133 21.6699-7.05078C21.6699-12.5 17.1484-17.0117 11.6992-17.0117C6.25977-17.0117 1.74805-12.5 1.74805-7.05078C1.74805-1.61133 6.26953 2.91016 11.709 2.91016ZM11.709 1.25C7.09961 1.25 3.41797-2.44141 3.41797-7.05078C3.41797-11.6602 7.08984-15.3516 11.6992-15.3516C16.3086-15.3516 20-11.6602 20.0098-7.05078C20.0195-2.44141 16.3184 1.25 11.709 1.25ZM7.98828-6.23047L10.8789-6.23047L10.8789-3.32031C10.8789-2.83203 11.2109-2.5 11.6895-2.5C12.1777-2.5 12.5195-2.83203 12.5195-3.32031L12.5195-6.23047L15.4297-6.23047C15.918-6.23047 16.25-6.5625 16.25-7.04102C16.25-7.5293 15.918-7.87109 15.4297-7.87109L12.5195-7.87109L12.5195-10.7617C12.5195-11.2695 12.1777-11.6016 11.6895-11.6016C11.2109-11.6016 10.8789-11.2598 10.8789-10.7617L10.8789-7.87109L7.98828-7.87109C7.48047-7.87109 7.14844-7.5293 7.14844-7.04102C7.14844-6.5625 7.49023-6.23047 7.98828-6.23047Z"/>
  </g>
  <g id="" transform="matrix(1 0 0 1 304.924 1933)">
   <path d="M14.9707 5.66406C21.9336 5.66406 27.6953-0.0976562 27.6953-7.05078C27.6953-14.0137 21.9238-19.7754 14.9609-19.7754C8.00781-19.7754 2.25586-14.0137 2.25586-7.05078C2.25586-0.0976562 8.01758 5.66406 14.9707 5.66406ZM14.9707 3.84766C8.93555 3.84766 4.08203-1.01562 4.08203-7.05078C4.08203-13.0957 8.92578-17.9492 14.9609-17.9492C21.0059-17.9492 25.8594-13.0957 25.8691-7.05078C25.8789-1.01562 21.0156 3.84766 14.9707 3.84766ZM10.0586-6.14258L14.0625-6.14258L14.0625-2.12891C14.0625-1.5918 14.4336-1.2207 14.9512-1.2207C15.4883-1.2207 15.8594-1.5918 15.8594-2.12891L15.8594-6.14258L19.8828-6.14258C20.4102-6.14258 20.791-6.51367 20.791-7.03125C20.791-7.56836 20.4199-7.94922 19.8828-7.94922L15.8594-7.94922L15.8594-11.9531C15.8594-12.5098 15.4883-12.8809 14.9512-12.8809C14.4336-12.8809 14.0625-12.5 14.0625-11.9531L14.0625-7.94922L10.0586-7.94922C9.50195-7.94922 9.13086-7.56836 9.13086-7.03125C9.13086-6.51367 9.51172-6.14258 10.0586-6.14258Z"/>
  </g>
  <text style="stroke:none;fill:black;font-family:-apple-system,&quot;SF Pro Display&quot;,&quot;SF Pro Text&quot;,Helvetica,sans-serif;font-weight:bold;" transform="matrix(1 0 0 1 263 1953)">Design Variations</text>
  <text style="stroke:none;fill:black;font-family:-apple-system,&quot;SF Pro Display&quot;,&quot;SF Pro Text&quot;,Helvetica,sans-serif;" transform="matrix(1 0 0 1 263 1971)">Symbols are supported in up to nine weights and three scales.</text>
  <text style="stroke:none;fill:black;font-family:-apple-system,&quot;SF Pro Display&quot;,&quot;SF Pro Text&quot;,Helvetica,sans-serif;" transform="matrix(1 0 0 1 263 1989)">For optimal layout with text and other symbols, vertically align</text>
  <text style="stroke:none;fill:black;font-family:-apple-system,&quot;SF Pro Display&quot;,&quot;SF Pro Text&quot;,Helvetica,sans-serif;" transform="matrix(1 0 0 1 263 2007)">symbols with the adjacent text.</text>
  <line id="" style="fill:none;stroke:#00AEEF;stroke-width:0.5;opacity:1.0;" x1="776" x2="776" y1="1919" y2="1933"/>
  <g id="" transform="matrix(1 0 0 1 776 1933)">
   <path d="M3.31055 0.126953C3.82812 0.126953 4.08203-0.0683594 4.26758-0.605469L5.52734-4.0625L11.2891-4.0625L12.5488-0.605469C12.7344-0.0683594 12.9883 0.126953 13.4961 0.126953C14.0137 0.126953 14.3457-0.185547 14.3457-0.673828C14.3457-0.839844 14.3164-0.986328 14.2383-1.20117L9.6582-13.3887C9.43359-13.9941 9.0332-14.2871 8.4082-14.2871C7.80273-14.2871 7.39258-13.9941 7.17773-13.3984L2.59766-1.19141C2.51953-0.976562 2.49023-0.830078 2.49023-0.664062C2.49023-0.175781 2.80273 0.126953 3.31055 0.126953ZM6.00586-5.53711L8.37891-12.1094L8.42773-12.1094L10.8008-5.53711Z"/>
  </g>
  <line id="" style="fill:none;stroke:#00AEEF;stroke-width:0.5;opacity:1.0;" x1="792.836" x2="792.836" y1="1919" y2="1933"/>
  <text style="stroke:none;fill:black;font-family:-apple-system,&quot;SF Pro Display&quot;,&quot;SF Pro Text&quot;,Helvetica,sans-serif;font-weight:bold;" transform="matrix(1 0 0 1 776 1953)">Margins</text>
  <text style="stroke:none;fill:black;font-family:-apple-system,&quot;SF Pro Display&quot;,&quot;SF Pro Text&quot;,Helvetica,sans-serif;" transform="matrix(1 0 0 1 776 1971)">Leading and trailing margins on the left and right side of each symbol</text>
  <text style="stroke:none;fill:black;font-family:-apple-system,&quot;SF Pro Display&quot;,&quot;SF Pro Text&quot;,Helvetica,sans-serif;" transform="matrix(1 0 0 1 776 1989)">can be adjusted by modifying the x-location of the margin guidelines.</text>
  <text style="stroke:none;fill:black;font-family:-apple-system,&quot;SF Pro Display&quot;,&quot;SF Pro Text&quot;,Helvetica,sans-serif;" transform="matrix(1 0 0 1 776 2007)">Modifications are automatically applied proportionally to all</text>
  <text style="stroke:none;fill:black;font-family:-apple-system,&quot;SF Pro Display&quot;,&quot;SF Pro Text&quot;,Helvetica,sans-serif;" transform="matrix(1 0 0 1 776 2025)">scales and weights.</text>
  <g id="" transform="matrix(1 0 0 1 1289 1933)">
   <path d="M2.8418 1.86523L4.54102 3.57422C5.40039 4.44336 6.38672 4.38477 7.31445 3.35938L17.4902-7.85156C17.7539-7.76367 18.0273-7.7832 18.3398-7.8418L19.4043-8.03711L20.0684-7.36328L20.0293-6.80664C19.9902-6.30859 20.1172-5.92773 20.6055-5.44922L21.3672-4.70703C21.8457-4.22852 22.4609-4.19922 22.9297-4.66797L25.8398-7.58789C26.3086-8.05664 26.2891-8.65234 25.8105-9.13086L25.0391-9.89258C24.5605-10.3711 24.1895-10.5273 23.7109-10.4883L23.1348-10.4395L22.4902-11.0742L22.7344-12.1973C22.8613-12.7637 22.7051-13.2031 22.1191-13.7891L19.9219-15.9766C16.582-19.2969 12.1484-19.2188 9.25781-16.3281C8.83789-15.918 8.80859-15.3418 9.04297-14.9512C9.27734-14.5898 9.73633-14.3555 10.3809-14.5215C11.8457-14.8633 13.3691-14.9219 14.7949-13.9844L14.209-12.5293C14.0137-12.0508 13.9844-11.6504 14.1113-11.2891L3.04688-0.898438C2.06055 0.0195312 1.98242 0.996094 2.8418 1.86523ZM10.752-15.957C13.1836-17.7344 16.4746-17.4316 18.7012-15.2051L21.1328-12.793C21.3672-12.5586 21.4062-12.373 21.3379-12.0312L21.0156-10.5469L22.5195-9.0625L23.5059-9.12109C23.7598-9.13086 23.8379-9.11133 24.0332-8.91602L24.6094-8.33984L22.168-5.89844L21.5918-6.47461C21.3965-6.66992 21.3672-6.74805 21.377-7.01172L21.4453-7.98828L19.9512-9.47266L18.4277-9.21875C18.1055-9.15039 17.959-9.17969 17.7148-9.41406L15.7129-11.416C15.459-11.6504 15.4297-11.8164 15.5859-12.1875L16.4648-14.2773C14.9023-15.7324 12.8711-16.3574 10.8398-15.7617C10.6836-15.7227 10.625-15.8496 10.752-15.957ZM5.27344 2.30469L4.10156 1.14258C3.63281 0.683594 3.74023 0.341797 4.14062-0.0195312L14.9512-10.1953L16.416-8.71094L6.42578 2.27539C6.07422 2.67578 5.74219 2.77344 5.27344 2.30469Z"/>
  </g>
  <text style="stroke:none;fill:black;font-family:-apple-system,&quot;SF Pro Display&quot;,&quot;SF Pro Text&quot;,Helvetica,sans-serif;font-weight:bold;" transform="matrix(1 0 0 1 1289 1953)">Exporting</text>
  <text style="stroke:none;fill:black;font-family:-apple-system,&quot;SF Pro Display&quot;,&quot;SF Pro Text&quot;,Helvetica,sans-serif;" transform="matrix(1 0 0 1 1289 1971)">Symbols should be outlined when exporting to ensure the</text>
  <text style="stroke:none;fill:black;font-family:-apple-system,&quot;SF Pro Display&quot;,&quot;SF Pro Text&quot;,Helvetica,sans-serif;" transform="matrix(1 0 0 1 1289 1989)">design is preserved when submitting to Xcode.</text>
  <text id="template-version" style="stroke:none;fill:black;font-family:-apple-system,&quot;SF Pro Display&quot;,&quot;SF Pro Text&quot;,Helvetica,sans-serif;text-anchor:end;" transform="matrix(1 0 0 1 3036 1933)">Template v.2.0</text>
  <text style="stroke:none;fill:black;font-family:-apple-system,&quot;SF Pro Display&quot;,&quot;SF Pro Text&quot;,Helvetica,sans-serif;text-anchor:end;" transform="matrix(1 0 0 1 3036 1951)">Requires Xcode 12 or greater</text>
  <text style="stroke:none;fill:black;font-family:-apple-system,&quot;SF Pro Display&quot;,&quot;SF Pro Text&quot;,Helvetica,sans-serif;text-anchor:end;" transform="matrix(1 0 0 1 3036 1969)">Generated from increase.indent</text>
  <text style="stroke:none;fill:black;font-family:-apple-system,&quot;SF Pro Display&quot;,&quot;SF Pro Text&quot;,Helvetica,sans-serif;text-anchor:end;" transform="matrix(1 0 0 1 3036 1987)">Typeset at 100 points</text>
  <text style="stroke:none;fill:black;font-family:-apple-system,&quot;SF Pro Display&quot;,&quot;SF Pro Text&quot;,Helvetica,sans-serif;" transform="matrix(1 0 0 1 263 726)">Small</text>
  <text style="stroke:none;fill:black;font-family:-apple-system,&quot;SF Pro Display&quot;,&quot;SF Pro Text&quot;,Helvetica,sans-serif;" transform="matrix(1 0 0 1 263 1156)">Medium</text>
  <text style="stroke:none;fill:black;font-family:-apple-system,&quot;SF Pro Display&quot;,&quot;SF Pro Text&quot;,Helvetica,sans-serif;" transform="matrix(1 0 0 1 263 1586)">Large</text>
 </g>
 <g id="Guides">
  <g id="H-reference" style="fill:#27AAE1;stroke:none;" transform="matrix(1 0 0 1 339 696)">
   <path d="M0.976562 0L3.66211 0L12.9883-24.4629L45.752-24.4629L55.127 0L57.7637 0L30.6152-70.459L28.125-70.459ZM29.3457-67.1387L29.4434-67.1387L44.873-26.709L13.8672-26.709Z"/>
  </g>
  <line id="Baseline-S" style="fill:none;stroke:#27AAE1;opacity:1;stroke-width:0.5;" x1="263" x2="3036" y1="696" y2="696"/>
  <line id="Capline-S" style="fill:none;stroke:#27AAE1;opacity:1;stroke-width:0.5;" x1="263" x2="3036" y1="625.541" y2="625.541"/>
  <g id="H-reference" style="fill:#27AAE1;stroke:none;" transform="matrix(1 0 0 1 339 1126)">
   <path d="M0.976562 0L3.66211 0L12.9883-24.4629L45.752-24.4629L55.127 0L57.7637 0L30.6152-70.459L28.125-70.459ZM29.3457-67.1387L29.4434-67.1387L44.873-26.709L13.8672-26.709Z"/>
  </g>
  <line id="Baseline-M" style="fill:none;stroke:#27AAE1;opacity:1;stroke-width:0.5;" x1="263" x2="3036" y1="1126" y2="1126"/>
  <line id="Capline-M" style="fill:none;stroke:#27AAE1;opacity:1;stroke-width:0.5;" x1="263" x2="3036" y1="1055.54" y2="1055.54"/>
  <g id="H-reference" style="fill:#27AAE1;stroke:none;" transform="matrix(1 0 0 1 339 1556)">
   <path d="M0.976562 0L3.66211 0L12.9883-24.4629L45.752-24.4629L55.127 0L57.7637 0L30.6152-70.459L28.125-70.459ZM29.3457-67.1387L29.4434-67.1387L44.873-26.709L13.8672-26.709Z"/>
  </g>
  <line id="Baseline-L" style="fill:none;stroke:#27AAE1;opacity:1;stroke-width:0.5;" x1="263" x2="3036" y1="1556" y2="1556"/>
  <line id="Capline-L" style="fill:none;stroke:#27AAE1;opacity:1;stroke-width:0.5;" x1="263" x2="3036" y1="1485.54" y2="1485.54"/>
  <line id="left-margin" style="fill:none;stroke:#00AEEF;stroke-width:0.5;opacity:1.0;" x1="1380.75" x2="1380.75" y1="1030.79" y2="1150.12"/>
  <line id="right-margin" style="fill:none;stroke:#00AEEF;stroke-width:0.5;opacity:1.0;" x1="1518.94" x2="1518.94" y1="1030.79" y2="1150.12"/>
 </g>
 <g id="Symbols">
  <g id="Black-L" transform="matrix(1 0 0 1 2834.28 1556)">
   <path d="M87.2559-77.2461L173.291-77.2461C178.223-77.2461 182.178-81.543 182.178-86.377C182.178-91.3574 178.32-95.5078 173.291-95.5078L87.2559-95.5078C82.3242-95.5078 78.418-91.2598 78.418-86.377C78.418-81.6406 82.373-77.2461 87.2559-77.2461ZM87.2559-44.1895L173.291-44.1895C178.223-44.1895 182.178-48.4863 182.178-53.3203C182.178-58.3496 178.32-62.4512 173.291-62.4512L87.2559-62.4512C82.3242-62.4512 78.418-58.252 78.418-53.3203C78.418-48.6328 82.373-44.1895 87.2559-44.1895ZM28.2715-11.8164L53.6133-28.7598C58.252-31.8848 58.0566-38.3789 53.6133-41.3574L28.2715-58.6914C22.4121-62.6953 16.2109-60.4492 16.2109-53.4668L16.2109-16.9434C16.2109-10.1562 22.6562-8.05664 28.2715-11.8164ZM87.2559-11.1328L173.291-11.1328C178.223-11.1328 182.178-15.4297 182.178-20.2637C182.178-25.2441 178.32-29.3945 173.291-29.3945L87.2559-29.3945C82.3242-29.3945 78.418-25.1465 78.418-20.2637C78.418-15.5273 82.373-11.1328 87.2559-11.1328ZM87.2559 21.9238L135.303 21.9238C140.234 21.9238 144.141 17.627 144.141 12.793C144.141 7.76367 140.283 3.66211 135.303 3.66211L87.2559 3.66211C82.3242 3.66211 78.418 7.91016 78.418 12.793C78.418 17.4805 82.373 21.9238 87.2559 21.9238Z"/>
  </g>
  <g id="Heavy-L" transform="matrix(1 0 0 1 2540.08 1556)">
   <path d="M84.5703-78.0762L169.385-78.0762C173.682-78.0762 177.1-81.7871 177.1-86.0352C177.1-90.3809 173.73-93.9941 169.385-93.9941L84.5703-93.9941C80.2734-93.9941 76.8555-90.332 76.8555-86.0352C76.8555-81.8848 80.3223-78.0762 84.5703-78.0762ZM84.5703-45.0684L169.385-45.0684C173.682-45.0684 177.1-48.7793 177.1-52.9785C177.1-57.373 173.73-60.9375 169.385-60.9375L84.5703-60.9375C80.2734-60.9375 76.8555-57.2754 76.8555-52.9785C76.8555-48.877 80.3223-45.0684 84.5703-45.0684ZM27.7344-13.0371L51.8066-29.1016C56.2012-32.0801 56.0059-38.2324 51.8066-41.1133L27.7344-57.5195C22.168-61.3281 16.2598-59.1797 16.3086-52.5391L16.3086-17.9199C16.2598-11.4258 22.4121-9.47266 27.7344-13.0371ZM84.5703-11.9629L169.385-11.9629C173.682-11.9629 177.1-15.6738 177.1-19.9219C177.1-24.3164 173.73-27.8809 169.385-27.8809L84.5703-27.8809C80.2734-27.8809 76.8555-24.2188 76.8555-19.9219C76.8555-15.7715 80.3223-11.9629 84.5703-11.9629ZM84.5703 21.0449L132.764 21.0449C137.061 21.0449 140.479 17.334 140.479 13.0859C140.479 8.74023 137.109 5.17578 132.764 5.17578L84.5703 5.17578C80.2734 5.17578 76.8555 8.83789 76.8555 13.0859C76.8555 17.2363 80.3223 21.0449 84.5703 21.0449Z"/>
  </g>
  <g id="Bold-L" transform="matrix(1 0 0 1 2246.2 1556)">
   <path d="M81.5918-79.0527L164.99-79.0527C168.604-79.0527 171.484-82.0801 171.484-85.6445C171.484-89.3066 168.652-92.2852 164.99-92.2852L81.5918-92.2852C77.9785-92.2852 75.1465-89.2578 75.1465-85.6445C75.1465-82.1289 77.9785-79.0527 81.5918-79.0527ZM81.5918-45.9961L164.99-45.9961C168.604-45.9961 171.484-49.0723 171.484-52.6367C171.484-56.25 168.652-59.2285 164.99-59.2285L81.5918-59.2285C77.9785-59.2285 75.1465-56.2012 75.1465-52.6367C75.1465-49.1211 77.9785-45.9961 81.5918-45.9961ZM27.0996-14.3555L49.7559-29.4922C53.8574-32.2754 53.7109-38.0371 49.7559-40.7715L27.0996-56.2012C21.875-59.7656 16.3574-57.8125 16.4062-51.5137L16.4062-18.9941C16.3574-12.8906 22.1191-11.0352 27.0996-14.3555ZM81.5918-12.9395L164.99-12.9395C168.604-12.9395 171.484-16.0156 171.484-19.5801C171.484-23.1934 168.652-26.1719 164.99-26.1719L81.5918-26.1719C77.9785-26.1719 75.1465-23.1445 75.1465-19.5801C75.1465-16.0645 77.9785-12.9395 81.5918-12.9395ZM81.5918 20.0684L129.883 20.0684C133.496 20.0684 136.377 17.041 136.377 13.4766C136.377 9.81445 133.545 6.88477 129.883 6.88477L81.5918 6.88477C77.9785 6.88477 75.1465 9.86328 75.1465 13.4766C75.1465 16.9922 77.9785 20.0684 81.5918 20.0684Z"/>
  </g>
  <g id="Semibold-L" transform="matrix(1 0 0 1 1951.42 1556)">
   <path d="M79.541-79.6875L161.963-79.6875C165.088-79.6875 167.578-82.2754 167.578-85.4004C167.578-88.5742 165.137-91.0645 161.963-91.0645L79.541-91.0645C76.3672-91.0645 73.9258-88.5254 73.9258-85.4004C73.9258-82.3242 76.416-79.6875 79.541-79.6875ZM79.541-46.6797L161.963-46.6797C165.088-46.6797 167.578-49.2676 167.578-52.3438C167.578-55.5176 165.137-58.0566 161.963-58.0566L79.541-58.0566C76.3672-58.0566 73.9258-55.4688 73.9258-52.3438C73.9258-49.3164 76.416-46.6797 79.541-46.6797ZM26.709-15.332L48.3398-29.7852C52.2949-32.4219 52.0996-37.9395 48.3398-40.5273L26.709-55.3223C21.6797-58.6914 16.4062-56.8359 16.4551-50.8301L16.4551-19.7266C16.4062-13.916 21.9238-12.1582 26.709-15.332ZM79.541-13.623L161.963-13.623C165.088-13.623 167.578-16.2109 167.578-19.2871C167.578-22.4609 165.137-25 161.963-25L79.541-25C76.3672-25 73.9258-22.4121 73.9258-19.2871C73.9258-16.2598 76.416-13.623 79.541-13.623ZM79.541 19.4336L127.93 19.4336C131.055 19.4336 133.545 16.8457 133.545 13.7207C133.545 10.5469 131.104 8.05664 127.93 8.05664L79.541 8.05664C76.3672 8.05664 73.9258 10.5957 73.9258 13.7207C73.9258 16.7969 76.416 19.4336 79.541 19.4336Z"/>
  </g>
  <g id="Medium-L" transform="matrix(1 0 0 1 1656.2 1556)">
   <path d="M77.9785-80.2246L159.668-80.2246C162.451-80.2246 164.648-82.4219 164.648-85.2051C164.648-87.9883 162.451-90.1855 159.668-90.1855L77.9785-90.1855C75.1953-90.1855 73.0469-87.9395 73.0469-85.2051C73.0469-82.4707 75.1953-80.2246 77.9785-80.2246ZM77.9785-47.168L159.668-47.168C162.451-47.168 164.648-49.4141 164.648-52.1484C164.648-54.9316 162.451-57.1289 159.668-57.1289L77.9785-57.1289C75.1953-57.1289 73.0469-54.9316 73.0469-52.1484C73.0469-49.4141 75.1953-47.168 77.9785-47.168ZM26.416-16.0156L47.3145-29.9805C51.0742-32.5195 50.9277-37.8418 47.3145-40.3809L26.416-54.6387C21.5332-57.9102 16.4551-56.1035 16.5039-50.293L16.5039-20.2637C16.4551-14.6484 21.7773-12.9883 26.416-16.0156ZM77.9785-14.1113L159.668-14.1113C162.451-14.1113 164.648-16.3574 164.648-19.1406C164.648-21.9238 162.451-24.1211 159.668-24.1211L77.9785-24.1211C75.1953-24.1211 73.0469-21.875 73.0469-19.1406C73.0469-16.4062 75.1953-14.1113 77.9785-14.1113ZM77.9785 18.8965L126.465 18.8965C129.199 18.8965 131.445 16.6504 131.445 13.916C131.445 11.1328 129.248 8.93555 126.465 8.93555L77.9785 8.93555C75.1953 8.93555 73.0469 11.1328 73.0469 13.916C73.0469 16.6504 75.1953 18.8965 77.9785 18.8965Z"/>
  </g>
  <g id="Regular-L" transform="matrix(1 0 0 1 1361.39 1556)">
   <path d="M75.9277-80.8594L156.689-80.8594C158.984-80.8594 160.791-82.6172 160.791-84.9609C160.791-87.2559 158.984-89.0137 156.689-89.0137L75.9277-89.0137C73.6328-89.0137 71.8262-87.2559 71.8262-84.9609C71.8262-82.6172 73.6328-80.8594 75.9277-80.8594ZM75.9277-47.8027L156.689-47.8027C158.984-47.8027 160.791-49.6094 160.791-51.9043C160.791-54.1992 158.984-56.0059 156.689-56.0059L75.9277-56.0059C73.6328-56.0059 71.8262-54.1992 71.8262-51.9043C71.8262-49.6094 73.6328-47.8027 75.9277-47.8027ZM25.9766-16.9434L45.8984-30.2734C49.4629-32.666 49.3652-37.7441 45.8984-40.1367L25.9766-53.7109C21.3379-56.8359 16.5039-55.127 16.5527-49.5605L16.5527-20.9961C16.5039-15.6738 21.582-14.0625 25.9766-16.9434ZM75.9277-14.7949L156.689-14.7949C158.984-14.7949 160.791-16.5527 160.791-18.8477C160.791-21.1914 158.984-22.9492 156.689-22.9492L75.9277-22.9492C73.6328-22.9492 71.8262-21.1914 71.8262-18.8477C71.8262-16.5527 73.6328-14.7949 75.9277-14.7949ZM75.9277 18.2617L124.512 18.2617C126.807 18.2617 128.613 16.4551 128.613 14.1602C128.613 11.8652 126.807 10.1074 124.512 10.1074L75.9277 10.1074C73.6328 10.1074 71.8262 11.8652 71.8262 14.1602C71.8262 16.4551 73.6328 18.2617 75.9277 18.2617Z"/>
  </g>
  <g id="Light-L" transform="matrix(1 0 0 1 1065.66 1556)">
   <path d="M73.2422-81.7871L155.664-81.7871C157.471-81.7871 158.838-83.1055 158.838-84.9121C158.838-86.7188 157.471-88.0859 155.664-88.0859L73.2422-88.0859C71.4355-88.0859 70.0684-86.7188 70.0684-84.9121C70.0684-83.1055 71.4355-81.7871 73.2422-81.7871ZM73.2422-48.6816L155.664-48.6816C157.471-48.6816 158.838-50.0488 158.838-51.8555C158.838-53.6621 157.471-54.9805 155.664-54.9805L73.2422-54.9805C71.4355-54.9805 70.0684-53.6621 70.0684-51.8555C70.0684-50.0488 71.4355-48.6816 73.2422-48.6816ZM25.3418-18.0664L43.9941-30.5664C47.3633-32.8125 47.2656-37.5488 43.9941-39.7949L25.3418-52.4902C21.0449-55.4199 16.5039-53.8574 16.5039-48.6328L16.5039-21.875C16.5039-16.8457 21.2402-15.332 25.3418-18.0664ZM73.2422-15.625L155.664-15.625C157.471-15.625 158.838-16.9922 158.838-18.7988C158.838-20.5566 157.471-21.9238 155.664-21.9238L73.2422-21.9238C71.4355-21.9238 70.0684-20.5566 70.0684-18.7988C70.0684-16.9922 71.4355-15.625 73.2422-15.625ZM73.2422 17.4316L123.486 17.4316C125.293 17.4316 126.709 16.1133 126.709 14.3066C126.709 12.5 125.293 11.1328 123.486 11.1328L73.2422 11.1328C71.4355 11.1328 70.0684 12.5 70.0684 14.3066C70.0684 16.1133 71.4355 17.4316 73.2422 17.4316Z"/>
  </g>
  <g id="Thin-L" transform="matrix(1 0 0 1 770.241 1556)">
   <path d="M69.6777-82.959L154.346-82.959C155.518-82.959 156.299-83.7402 156.299-84.9121C156.299-86.0352 155.518-86.8164 154.346-86.8164L69.6777-86.8164C68.5547-86.8164 67.7734-86.0352 67.7734-84.9121C67.7734-83.7402 68.5547-82.959 69.6777-82.959ZM69.6777-49.8535L154.346-49.8535C155.518-49.8535 156.299-50.6348 156.299-51.7578C156.299-52.9297 155.518-53.7109 154.346-53.7109L69.6777-53.7109C68.5547-53.7109 67.7734-52.9297 67.7734-51.7578C67.7734-50.6348 68.5547-49.8535 69.6777-49.8535ZM24.4629-19.5312L41.5039-30.9082C44.5312-32.959 44.4824-37.2559 41.5039-39.3555L24.4629-50.8789C20.6055-53.5645 16.4551-52.1484 16.4551-47.3633L16.4551-22.998C16.4551-18.457 20.752-17.041 24.4629-19.5312ZM69.6777-16.6992L154.346-16.6992C155.518-16.6992 156.299-17.5293 156.299-18.6523C156.299-19.7754 155.518-20.6055 154.346-20.6055L69.6777-20.6055C68.5547-20.6055 67.7734-19.7754 67.7734-18.6523C67.7734-17.5293 68.5547-16.6992 69.6777-16.6992ZM69.6777 16.4062L122.168 16.4062C123.34 16.4062 124.121 15.625 124.121 14.4531C124.121 13.3301 123.34 12.5488 122.168 12.5488L69.6777 12.5488C68.5547 12.5488 67.7734 13.3301 67.7734 14.4531C67.7734 15.625 68.5547 16.4062 69.6777 16.4062Z"/>
  </g>
  <g id="Ultralight-L" transform="matrix(1 0 0 1 474.189 1556)">
   <path d="M67.8711-83.5938L153.662-83.5938C154.492-83.5938 154.98-84.082 154.98-84.8633C154.98-85.6934 154.492-86.1816 153.662-86.1816L67.8711-86.1816C67.0898-86.1816 66.5527-85.6934 66.5527-84.8633C66.5527-84.082 67.0898-83.5938 67.8711-83.5938ZM67.8711-50.4395L153.662-50.4395C154.492-50.4395 154.98-50.9277 154.98-51.7578C154.98-52.5391 154.492-53.0273 153.662-53.0273L67.8711-53.0273C67.0898-53.0273 66.5527-52.5391 66.5527-51.7578C66.5527-50.9277 67.0898-50.4395 67.8711-50.4395ZM24.0723-20.2637L40.1855-31.1035C43.1152-33.0566 43.0176-37.1094 40.1855-39.1113L24.0723-50.0488C20.3613-52.5879 16.4551-51.2695 16.4551-46.6797L16.4551-23.584C16.4551-19.2383 20.5078-17.9199 24.0723-20.2637ZM67.8711-17.2852L153.662-17.2852C154.492-17.2852 154.98-17.7734 154.98-18.6035C154.98-19.3848 154.492-19.9219 153.662-19.9219L67.8711-19.9219C67.0898-19.9219 66.5527-19.3848 66.5527-18.6035C66.5527-17.7734 67.0898-17.2852 67.8711-17.2852ZM67.8711 15.8691L121.533 15.8691C122.314 15.8691 122.803 15.332 122.803 14.5508C122.803 13.7695 122.314 13.2324 121.533 13.2324L67.8711 13.2324C67.0898 13.2324 66.5527 13.7695 66.5527 14.5508C66.5527 15.332 67.0898 15.8691 67.8711 15.8691Z"/>
  </g>
  <g id="Black-M" transform="matrix(1 0 0 1 2853.71 1126)">
   <path d="M69.7754-67.1387L139.062-67.1387C143.457-67.1387 146.924-71.0449 146.924-75.293C146.924-79.7852 143.506-83.4961 139.062-83.4961L69.7754-83.4961C65.3809-83.4961 61.9141-79.6387 61.9141-75.293C61.9141-71.1426 65.4297-67.1387 69.7754-67.1387ZM69.7754-41.5039L139.062-41.5039C143.457-41.5039 146.924-45.4102 146.924-49.707C146.924-54.1504 143.506-57.9102 139.062-57.9102L69.7754-57.9102C65.3809-57.9102 61.9141-54.0527 61.9141-49.707C61.9141-45.5566 65.4297-41.5039 69.7754-41.5039ZM22.2656-16.0645L43.0176-29.8828C46.8262-32.4219 46.6309-37.7441 43.0176-40.1855L22.2656-54.3457C17.5293-57.6172 12.4512-55.7617 12.4512-50.0977L12.4512-20.2148C12.4512-14.6484 17.7246-12.9883 22.2656-16.0645ZM69.7754-15.8203L139.062-15.8203C143.457-15.8203 146.924-19.7266 146.924-24.0234C146.924-28.4668 143.506-32.2266 139.062-32.2266L69.7754-32.2266C65.3809-32.2266 61.9141-28.3691 61.9141-24.0234C61.9141-19.873 65.4297-15.8203 69.7754-15.8203ZM69.7754 9.81445L107.715 9.81445C112.158 9.81445 115.576 5.9082 115.576 1.61133C115.576-2.88086 112.207-6.5918 107.715-6.5918L69.7754-6.5918C65.3809-6.5918 61.9141-2.73438 61.9141 1.61133C61.9141 5.76172 65.4297 9.81445 69.7754 9.81445Z"/>
  </g>
  <g id="Heavy-M" transform="matrix(1 0 0 1 2559.52 1126)">
   <path d="M67.5293-67.8223L135.01-67.8223C138.867-67.8223 141.895-71.1914 141.895-74.9512C141.895-78.8574 138.916-82.0801 135.01-82.0801L67.5293-82.0801C63.6719-82.0801 60.6445-78.7598 60.6445-74.9512C60.6445-71.2891 63.7207-67.8223 67.5293-67.8223ZM67.5293-42.1875L135.01-42.1875C138.867-42.1875 141.895-45.5566 141.895-49.3164C141.895-53.2227 138.916-56.4453 135.01-56.4453L67.5293-56.4453C63.6719-56.4453 60.6445-53.125 60.6445-49.3164C60.6445-45.6543 63.7207-42.1875 67.5293-42.1875ZM21.875-17.0898L41.5039-30.1758C45.1172-32.6172 44.9219-37.6465 41.5039-39.9902L21.875-53.3691C17.334-56.4453 12.5488-54.7363 12.5488-49.3164L12.5488-21.0449C12.5488-15.7715 17.5293-14.1602 21.875-17.0898ZM67.5293-16.5527L135.01-16.5527C138.867-16.5527 141.895-19.9219 141.895-23.6816C141.895-27.5879 138.916-30.8105 135.01-30.8105L67.5293-30.8105C63.6719-30.8105 60.6445-27.4902 60.6445-23.6816C60.6445-20.0195 63.7207-16.5527 67.5293-16.5527ZM67.5293 9.08203L105.225 9.08203C109.082 9.08203 112.109 5.66406 112.109 1.9043C112.109-1.95312 109.131-5.22461 105.225-5.22461L67.5293-5.22461C63.6719-5.22461 60.6445-1.85547 60.6445 1.9043C60.6445 5.56641 63.7207 9.08203 67.5293 9.08203Z"/>
  </g>
  <g id="Bold-M" transform="matrix(1 0 0 1 2265.59 1126)">
   <path d="M65.0879-68.6035L130.518-68.6035C133.74-68.6035 136.328-71.3867 136.328-74.5605C136.328-77.7832 133.789-80.4688 130.518-80.4688L65.0879-80.4688C61.8164-80.4688 59.2773-77.7344 59.2773-74.5605C59.2773-71.4355 61.8652-68.6035 65.0879-68.6035ZM65.0879-43.0176L130.518-43.0176C133.74-43.0176 136.328-45.752 136.328-48.9258C136.328-52.1973 133.789-54.8828 130.518-54.8828L65.0879-54.8828C61.8164-54.8828 59.2773-52.1484 59.2773-48.9258C59.2773-45.8496 61.8652-43.0176 65.0879-43.0176ZM21.3867-18.2129L39.8438-30.5664C43.1641-32.8125 43.0176-37.5488 39.8438-39.6973L21.3867-52.2949C17.1387-55.1758 12.6465-53.5645 12.6465-48.4863L12.6465-21.9727C12.6465-17.041 17.334-15.5273 21.3867-18.2129ZM65.0879-17.3828L130.518-17.3828C133.74-17.3828 136.328-20.1172 136.328-23.291C136.328-26.5625 133.789-29.248 130.518-29.248L65.0879-29.248C61.8164-29.248 59.2773-26.5137 59.2773-23.291C59.2773-20.2148 61.8652-17.3828 65.0879-17.3828ZM65.0879 8.25195L102.393 8.25195C105.615 8.25195 108.203 5.46875 108.203 2.29492C108.203-0.976562 105.664-3.66211 102.393-3.66211L65.0879-3.66211C61.8164-3.66211 59.2773-0.927734 59.2773 2.29492C59.2773 5.41992 61.8652 8.25195 65.0879 8.25195Z"/>
  </g>
  <g id="Semibold-M" transform="matrix(1 0 0 1 1970.81 1126)">
   <path d="M63.3789-69.1406L127.393-69.1406C130.225-69.1406 132.471-71.4844 132.471-74.2676C132.471-77.0996 130.225-79.3945 127.393-79.3945L63.3789-79.3945C60.5469-79.3945 58.3496-77.0508 58.3496-74.2676C58.3496-71.5332 60.5469-69.1406 63.3789-69.1406ZM63.3789-43.5547L127.393-43.5547C130.225-43.5547 132.471-45.8984 132.471-48.6816C132.471-51.5137 130.225-53.7598 127.393-53.7598L63.3789-53.7598C60.5469-53.7598 58.3496-51.4648 58.3496-48.6816C58.3496-45.9473 60.5469-43.5547 63.3789-43.5547ZM21.0449-19.043L38.6719-30.8105C41.8457-32.959 41.6992-37.4512 38.6719-39.5508L21.0449-51.5625C16.9922-54.2969 12.6953-52.7832 12.6953-47.9004L12.6953-22.6074C12.6953-17.8711 17.1875-16.4551 21.0449-19.043ZM63.3789-17.9199L127.393-17.9199C130.225-17.9199 132.471-20.2637 132.471-23.0469C132.471-25.8789 130.225-28.1738 127.393-28.1738L63.3789-28.1738C60.5469-28.1738 58.3496-25.8301 58.3496-23.0469C58.3496-20.3125 60.5469-17.9199 63.3789-17.9199ZM63.3789 7.66602L100.439 7.66602C103.271 7.66602 105.518 5.32227 105.518 2.53906C105.518-0.292969 103.271-2.58789 100.439-2.58789L63.3789-2.58789C60.5469-2.58789 58.3496-0.244141 58.3496 2.53906C58.3496 5.27344 60.5469 7.66602 63.3789 7.66602Z"/>
  </g>
  <g id="Medium-M" transform="matrix(1 0 0 1 1675.56 1126)">
   <path d="M62.0605-69.5312L125.049-69.5312C127.539-69.5312 129.541-71.582 129.541-74.0234C129.541-76.5625 127.539-78.5156 125.049-78.5156L62.0605-78.5156C59.5703-78.5156 57.6172-76.5137 57.6172-74.0234C57.6172-71.582 59.5703-69.5312 62.0605-69.5312ZM62.0605-43.9453L125.049-43.9453C127.539-43.9453 129.541-45.9961 129.541-48.4375C129.541-50.9766 127.539-52.9297 125.049-52.9297L62.0605-52.9297C59.5703-52.9297 57.6172-50.9277 57.6172-48.4375C57.6172-45.9961 59.5703-43.9453 62.0605-43.9453ZM20.8008-19.6289L37.793-31.0059C40.8691-33.0566 40.7227-37.3535 37.793-39.4043L20.8008-50.9766C16.8945-53.6621 12.7441-52.1973 12.793-47.4609L12.793-23.0957C12.7441-18.5059 17.041-17.1387 20.8008-19.6289ZM62.0605-18.3594L125.049-18.3594C127.539-18.3594 129.541-20.4102 129.541-22.8516C129.541-25.3418 127.539-27.3438 125.049-27.3438L62.0605-27.3438C59.5703-27.3438 57.6172-25.3418 57.6172-22.8516C57.6172-20.4102 59.5703-18.3594 62.0605-18.3594ZM62.0605 7.22656L98.9746 7.22656C101.465 7.22656 103.467 5.17578 103.467 2.73438C103.467 0.244141 101.465-1.75781 98.9746-1.75781L62.0605-1.75781C59.5703-1.75781 57.6172 0.244141 57.6172 2.73438C57.6172 5.17578 59.5703 7.22656 62.0605 7.22656Z"/>
  </g>
  <g id="Regular-M" transform="matrix(1 0 0 1 1380.75 1126)">
   <path d="M60.3516-70.0684L121.973-70.0684C124.072-70.0684 125.732-71.6797 125.732-73.7793C125.732-75.8301 124.072-77.4414 121.973-77.4414L60.3516-77.4414C58.3008-77.4414 56.6895-75.8301 56.6895-73.7793C56.6895-71.6797 58.3008-70.0684 60.3516-70.0684ZM60.3516-44.4824L121.973-44.4824C124.072-44.4824 125.732-46.0938 125.732-48.1934C125.732-50.2441 124.072-51.8555 121.973-51.8555L60.3516-51.8555C58.3008-51.8555 56.6895-50.2441 56.6895-48.1934C56.6895-46.0938 58.3008-44.4824 60.3516-44.4824ZM20.5078-20.4102L36.6699-31.2012C39.5508-33.1543 39.4531-37.3047 36.6699-39.2578L20.5078-50.2441C16.748-52.7832 12.793-51.3672 12.8418-46.875L12.8418-23.7305C12.793-19.3848 16.8945-18.0664 20.5078-20.4102ZM60.3516-18.8965L121.973-18.8965C124.072-18.8965 125.732-20.5566 125.732-22.6074C125.732-24.6582 124.072-26.2695 121.973-26.2695L60.3516-26.2695C58.3008-26.2695 56.6895-24.6582 56.6895-22.6074C56.6895-20.5566 58.3008-18.8965 60.3516-18.8965ZM60.3516 6.64062L97.0703 6.64062C99.1211 6.64062 100.781 5.0293 100.781 2.97852C100.781 0.927734 99.1211-0.732422 97.0703-0.732422L60.3516-0.732422C58.3008-0.732422 56.6895 0.927734 56.6895 2.97852C56.6895 5.0293 58.3008 6.64062 60.3516 6.64062Z"/>
  </g>
  <g id="Light-M" transform="matrix(1 0 0 1 1084.92 1126)">
   <path d="M57.959-70.8984L121.094-70.8984C122.705-70.8984 123.975-72.1191 123.975-73.7305C123.975-75.3418 122.705-76.6113 121.094-76.6113L57.959-76.6113C56.3477-76.6113 55.0781-75.3418 55.0781-73.7305C55.0781-72.1191 56.3477-70.8984 57.959-70.8984ZM57.959-45.2637L121.094-45.2637C122.705-45.2637 123.975-46.5332 123.975-48.1445C123.975-49.7559 122.705-50.9766 121.094-50.9766L57.959-50.9766C56.3477-50.9766 55.0781-49.7559 55.0781-48.1445C55.0781-46.5332 56.3477-45.2637 57.959-45.2637ZM19.9219-21.4355L34.9609-31.4941C37.6465-33.3008 37.5488-37.1094 34.9609-38.916L19.9219-49.1699C16.4551-51.5137 12.793-50.2441 12.793-46.0449L12.793-24.5117C12.793-20.459 16.6016-19.2383 19.9219-21.4355ZM57.959-19.6777L121.094-19.6777C122.705-19.6777 123.975-20.8984 123.975-22.5098C123.975-24.1211 122.705-25.3906 121.094-25.3906L57.959-25.3906C56.3477-25.3906 55.0781-24.1211 55.0781-22.5098C55.0781-20.8984 56.3477-19.6777 57.959-19.6777ZM57.959 5.95703L96.1426 5.95703C97.8027 5.95703 99.0723 4.6875 99.0723 3.07617C99.0723 1.46484 97.8027 0.244141 96.1426 0.244141L57.959 0.244141C56.3477 0.244141 55.0781 1.46484 55.0781 3.07617C55.0781 4.6875 56.3477 5.95703 57.959 5.95703Z"/>
  </g>
  <g id="Thin-M" transform="matrix(1 0 0 1 789.357 1126)">
   <path d="M54.7852-71.9727L119.922-71.9727C120.947-71.9727 121.68-72.7051 121.68-73.7305C121.68-74.7559 120.947-75.4883 119.922-75.4883L54.7852-75.4883C53.7598-75.4883 53.0273-74.7559 53.0273-73.7305C53.0273-72.7051 53.7598-71.9727 54.7852-71.9727ZM54.7852-46.2891L119.922-46.2891C120.947-46.2891 121.68-47.0215 121.68-48.0469C121.68-49.0723 120.947-49.8535 119.922-49.8535L54.7852-49.8535C53.7598-49.8535 53.0273-49.0723 53.0273-48.0469C53.0273-47.0215 53.7598-46.2891 54.7852-46.2891ZM19.1406-22.7539L32.7148-31.7871C35.1074-33.4473 35.0586-36.8652 32.7148-38.5254L19.1406-47.7051C16.0645-49.8047 12.7441-48.6816 12.793-44.873L12.793-25.4883C12.7441-21.875 16.1621-20.752 19.1406-22.7539ZM54.7852-20.6543L119.922-20.6543C120.947-20.6543 121.68-21.3867 121.68-22.4121C121.68-23.4375 120.947-24.1699 119.922-24.1699L54.7852-24.1699C53.7598-24.1699 53.0273-23.4375 53.0273-22.4121C53.0273-21.3867 53.7598-20.6543 54.7852-20.6543ZM54.7852 5.0293L94.9707 5.0293C95.9961 5.0293 96.7285 4.24805 96.7285 3.22266C96.7285 2.19727 95.9961 1.46484 94.9707 1.46484L54.7852 1.46484C53.7598 1.46484 53.0273 2.19727 53.0273 3.22266C53.0273 4.24805 53.7598 5.0293 54.7852 5.0293Z"/>
  </g>
  <g id="Ultralight-M" transform="matrix(1 0 0 1 493.232 1126)">
   <path d="M53.1738-72.5098L119.287-72.5098C120.02-72.5098 120.508-72.998 120.508-73.7305C120.508-74.4141 120.02-74.9023 119.287-74.9023L53.1738-74.9023C52.4414-74.9023 51.9531-74.4141 51.9531-73.7305C51.9531-72.998 52.4414-72.5098 53.1738-72.5098ZM53.1738-46.8262L119.287-46.8262C120.02-46.8262 120.508-47.3145 120.508-48.0469C120.508-48.7793 120.02-49.2188 119.287-49.2188L53.1738-49.2188C52.4414-49.2188 51.9531-48.7793 51.9531-48.0469C51.9531-47.3145 52.4414-46.8262 53.1738-46.8262ZM18.75-23.3887L31.543-31.9824C33.8379-33.5449 33.7891-36.7676 31.543-38.2812L18.75-46.9727C15.8691-48.9746 12.7441-47.9004 12.7441-44.3359L12.7441-26.0254C12.7441-22.6074 15.9668-21.5332 18.75-23.3887ZM53.1738-21.1426L119.287-21.1426C120.02-21.1426 120.508-21.6309 120.508-22.3633C120.508-23.0957 120.02-23.5352 119.287-23.5352L53.1738-23.5352C52.4414-23.5352 51.9531-23.0957 51.9531-22.3633C51.9531-21.6309 52.4414-21.1426 53.1738-21.1426ZM53.1738 4.54102L94.3848 4.54102C95.1172 4.54102 95.5566 4.05273 95.5566 3.32031C95.5566 2.58789 95.1172 2.09961 94.3848 2.09961L53.1738 2.09961C52.4414 2.09961 51.9531 2.58789 51.9531 3.32031C51.9531 4.05273 52.4414 4.54102 53.1738 4.54102Z"/>
  </g>
  <g id="Black-S" transform="matrix(1 0 0 1 2871.14 696)">
   <path d="M54.541-60.2539L108.643-60.2539C112.061-60.2539 114.746-63.2812 114.746-66.6016C114.746-70.0684 112.109-72.9492 108.643-72.9492L54.541-72.9492C51.123-72.9492 48.4375-69.9707 48.4375-66.6016C48.4375-63.3789 51.1719-60.2539 54.541-60.2539ZM54.541-40.1855L108.643-40.1855C112.061-40.1855 114.746-43.2129 114.746-46.5332C114.746-50 112.109-52.8809 108.643-52.8809L54.541-52.8809C51.123-52.8809 48.4375-49.9023 48.4375-46.5332C48.4375-43.3105 51.1719-40.1855 54.541-40.1855ZM17.4316-20.2637L33.5938-31.0547C36.5723-33.0566 36.4258-37.207 33.5938-39.1113L17.4316-50.1465C13.7207-52.6855 9.76562-51.2695 9.76562-46.8262L9.76562-23.5352C9.76562-19.1895 13.8672-17.8711 17.4316-20.2637ZM54.541-20.0684L108.643-20.0684C112.061-20.0684 114.746-23.0957 114.746-26.416C114.746-29.8828 112.109-32.7637 108.643-32.7637L54.541-32.7637C51.123-32.7637 48.4375-29.7852 48.4375-26.416C48.4375-23.1934 51.1719-20.0684 54.541-20.0684ZM54.541 0L84.2285 0C87.6465 0 90.332-3.02734 90.332-6.34766C90.332-9.81445 87.6953-12.6953 84.2285-12.6953L54.541-12.6953C51.123-12.6953 48.4375-9.7168 48.4375-6.34766C48.4375-3.125 51.1719 0 54.541 0Z"/>
  </g>
  <g id="Heavy-S" transform="matrix(1 0 0 1 2576.24 696)">
   <path d="M53.125-60.6934L105.664-60.6934C108.691-60.6934 111.133-63.3789 111.133-66.3086C111.133-69.3848 108.74-71.9727 105.664-71.9727L53.125-71.9727C50.0488-71.9727 47.6562-69.3359 47.6562-66.3086C47.6562-63.4277 50.0977-60.6934 53.125-60.6934ZM53.125-40.625L105.664-40.625C108.691-40.625 111.133-43.3105 111.133-46.2891C111.133-49.3652 108.74-51.9043 105.664-51.9043L53.125-51.9043C50.0488-51.9043 47.6562-49.2676 47.6562-46.2891C47.6562-43.3594 50.0977-40.625 53.125-40.625ZM17.1875-20.9473L32.6172-31.25C35.4492-33.1543 35.3516-37.1582 32.6172-38.9648L17.1875-49.5117C13.623-51.9531 9.81445-50.5859 9.81445-46.3379L9.81445-24.0723C9.81445-19.9219 13.7695-18.6523 17.1875-20.9473ZM53.125-20.5566L105.664-20.5566C108.691-20.5566 111.133-23.1934 111.133-26.1719C111.133-29.248 108.74-31.7871 105.664-31.7871L53.125-31.7871C50.0488-31.7871 47.6562-29.1992 47.6562-26.1719C47.6562-23.291 50.0977-20.5566 53.125-20.5566ZM53.125-0.488281L82.4219-0.488281C85.4492-0.488281 87.8418-3.125 87.8418-6.10352C87.8418-9.17969 85.498-11.7188 82.4219-11.7188L53.125-11.7188C50.0488-11.7188 47.6562-9.13086 47.6562-6.10352C47.6562-3.22266 50.0977-0.488281 53.125-0.488281Z"/>
  </g>
  <g id="Bold-S" transform="matrix(1 0 0 1 2281.58 696)">
   <path d="M51.5137-61.1816L102.344-61.1816C104.932-61.1816 107.031-63.4277 107.031-66.0156C107.031-68.6523 104.98-70.8496 102.344-70.8496L51.5137-70.8496C48.877-70.8496 46.8262-68.6035 46.8262-66.0156C46.8262-63.4766 48.877-61.1816 51.5137-61.1816ZM51.5137-41.1621L102.344-41.1621C104.932-41.1621 107.031-43.4082 107.031-45.9473C107.031-48.6328 104.98-50.7812 102.344-50.7812L51.5137-50.7812C48.877-50.7812 46.8262-48.584 46.8262-45.9473C46.8262-43.457 48.877-41.1621 51.5137-41.1621ZM16.8945-21.7285L31.543-31.4941C34.2285-33.3008 34.1309-37.0605 31.543-38.8184L16.8945-48.8281C13.4766-51.123 9.91211-49.8535 9.91211-45.8008L9.91211-24.707C9.91211-20.752 13.623-19.5312 16.8945-21.7285ZM51.5137-21.0938L102.344-21.0938C104.932-21.0938 107.031-23.3398 107.031-25.8789C107.031-28.5645 104.98-30.7129 102.344-30.7129L51.5137-30.7129C48.877-30.7129 46.8262-28.5156 46.8262-25.8789C46.8262-23.3887 48.877-21.0938 51.5137-21.0938ZM51.5137-1.02539L80.3711-1.02539C82.959-1.02539 85.0586-3.27148 85.0586-5.85938C85.0586-8.49609 83.0078-10.6934 80.3711-10.6934L51.5137-10.6934C48.877-10.6934 46.8262-8.44727 46.8262-5.85938C46.8262-3.32031 48.877-1.02539 51.5137-1.02539Z"/>
  </g>
  <g id="Semibold-S" transform="matrix(1 0 0 1 1986.26 696)">
   <path d="M50.3906-61.5234L100-61.5234C102.344-61.5234 104.248-63.4766 104.248-65.8203C104.248-68.1641 102.393-70.0684 100-70.0684L50.3906-70.0684C48.0469-70.0684 46.1914-68.1152 46.1914-65.8203C46.1914-63.5254 48.0469-61.5234 50.3906-61.5234ZM50.3906-41.5039L100-41.5039C102.344-41.5039 104.248-43.457 104.248-45.752C104.248-48.0957 102.393-50 100-50L50.3906-50C48.0469-50 46.1914-48.0957 46.1914-45.752C46.1914-43.5059 48.0469-41.5039 50.3906-41.5039ZM16.6504-22.2168L30.8105-31.6895C33.3984-33.3984 33.252-37.0117 30.8105-38.7207L16.6504-48.3887C13.3789-50.5859 9.91211-49.3652 9.96094-45.459L9.96094-25.0977C9.91211-21.2891 13.5254-20.166 16.6504-22.2168ZM50.3906-21.4355L100-21.4355C102.344-21.4355 104.248-23.3887 104.248-25.6836C104.248-28.0762 102.393-29.9805 100-29.9805L50.3906-29.9805C48.0469-29.9805 46.1914-28.0273 46.1914-25.6836C46.1914-23.4375 48.0469-21.4355 50.3906-21.4355ZM50.3906-1.41602L78.9551-1.41602C81.2988-1.41602 83.1543-3.36914 83.1543-5.66406C83.1543-8.00781 81.2988-9.91211 78.9551-9.91211L50.3906-9.91211C48.0469-9.91211 46.1914-8.00781 46.1914-5.66406C46.1914-3.36914 48.0469-1.41602 50.3906-1.41602Z"/>
  </g>
  <g id="Medium-S" transform="matrix(1 0 0 1 1690.62 696)">
   <path d="M49.5605-61.8164L98.291-61.8164C100.391-61.8164 102.1-63.5254 102.1-65.625C102.1-67.7734 100.391-69.4824 98.291-69.4824L49.5605-69.4824C47.4121-69.4824 45.752-67.7734 45.752-65.625C45.752-63.5742 47.4609-61.8164 49.5605-61.8164ZM49.5605-41.748L98.291-41.748C100.391-41.748 102.1-43.5059 102.1-45.6055C102.1-47.7539 100.391-49.4629 98.291-49.4629L49.5605-49.4629C47.4121-49.4629 45.752-47.7051 45.752-45.6055C45.752-43.5059 47.4609-41.748 49.5605-41.748ZM16.5039-22.6562L30.2734-31.7871C32.7148-33.4961 32.6172-36.9629 30.2734-38.623L16.5039-47.998C13.3301-50.1465 9.96094-48.9746 10.0098-45.166L10.0098-25.4395C9.96094-21.7285 13.4766-20.6055 16.5039-22.6562ZM49.5605-21.7285L98.291-21.7285C100.391-21.7285 102.1-23.4863 102.1-25.5859C102.1-27.6855 100.391-29.3945 98.291-29.3945L49.5605-29.3945C47.4121-29.3945 45.752-27.6855 45.752-25.5859C45.752-23.4863 47.4609-21.7285 49.5605-21.7285ZM49.5605-1.70898L77.8809-1.70898C79.9805-1.70898 81.6895-3.41797 81.6895-5.51758C81.6895-7.66602 79.9805-9.375 77.8809-9.375L49.5605-9.375C47.4121-9.375 45.752-7.66602 45.752-5.51758C45.752-3.4668 47.4609-1.70898 49.5605-1.70898Z"/>
  </g>
  <g id="Regular-S" transform="matrix(1 0 0 1 1395.3 696)">
   <path d="M48.4375-62.1582L95.9961-62.1582C97.8516-62.1582 99.3164-63.5742 99.3164-65.4297C99.3164-67.2852 97.8516-68.7012 95.9961-68.7012L48.4375-68.7012C46.6309-68.7012 45.166-67.2852 45.166-65.4297C45.166-63.5742 46.6309-62.1582 48.4375-62.1582ZM48.4375-42.0898L95.9961-42.0898C97.8516-42.0898 99.3164-43.5547 99.3164-45.4102C99.3164-47.2168 97.8516-48.6816 95.9961-48.6816L48.4375-48.6816C46.6309-48.6816 45.166-47.2168 45.166-45.4102C45.166-43.5547 46.6309-42.0898 48.4375-42.0898ZM16.3086-23.1445L29.541-31.9824C31.8848-33.5449 31.7871-36.9141 29.541-38.5254L16.3086-47.5586C13.2324-49.6094 10.0098-48.4375 10.0586-44.7754L10.0586-25.8301C10.0098-22.2656 13.3789-21.2402 16.3086-23.1445ZM48.4375-22.0703L95.9961-22.0703C97.8516-22.0703 99.3164-23.5352 99.3164-25.3906C99.3164-27.1973 97.8516-28.6621 95.9961-28.6621L48.4375-28.6621C46.6309-28.6621 45.166-27.1973 45.166-25.3906C45.166-23.5352 46.6309-22.0703 48.4375-22.0703ZM48.4375-2.05078L76.4648-2.05078C78.3203-2.05078 79.7852-3.51562 79.7852-5.37109C79.7852-7.17773 78.3203-8.64258 76.4648-8.64258L48.4375-8.64258C46.6309-8.64258 45.166-7.17773 45.166-5.37109C45.166-3.51562 46.6309-2.05078 48.4375-2.05078Z"/>
  </g>
  <g id="Light-S" transform="matrix(1 0 0 1 1099.35 696)">
   <path d="M46.3379-62.8418L95.2148-62.8418C96.6309-62.8418 97.8027-63.9648 97.8027-65.4297C97.8027-66.8457 96.6309-67.9688 95.2148-67.9688L46.3379-67.9688C44.873-67.9688 43.75-66.8457 43.75-65.4297C43.75-63.9648 44.873-62.8418 46.3379-62.8418ZM46.3379-42.8223L95.2148-42.8223C96.6309-42.8223 97.8027-43.8965 97.8027-45.3613C97.8027-46.7773 96.6309-47.9004 95.2148-47.9004L46.3379-47.9004C44.873-47.9004 43.75-46.7773 43.75-45.3613C43.75-43.8965 44.873-42.8223 46.3379-42.8223ZM15.8203-24.0234L28.0273-32.1777C30.2246-33.6426 30.127-36.7676 28.0273-38.2324L15.8203-46.582C12.9883-48.4863 10.0098-47.4121 10.0586-44.043L10.0586-26.5137C10.0098-23.2422 13.1348-22.2656 15.8203-24.0234ZM46.3379-22.7539L95.2148-22.7539C96.6309-22.7539 97.8027-23.877 97.8027-25.293C97.8027-26.7578 96.6309-27.8809 95.2148-27.8809L46.3379-27.8809C44.873-27.8809 43.75-26.7578 43.75-25.293C43.75-23.877 44.873-22.7539 46.3379-22.7539ZM46.3379-2.68555L75.6836-2.68555C77.0996-2.68555 78.2715-3.80859 78.2715-5.27344C78.2715-6.68945 77.0996-7.8125 75.6836-7.8125L46.3379-7.8125C44.873-7.8125 43.75-6.68945 43.75-5.27344C43.75-3.80859 44.873-2.68555 46.3379-2.68555Z"/>
  </g>
  <g id="Thin-S" transform="matrix(1 0 0 1 803.663 696)">
   <path d="M43.5059-63.8184L94.1895-63.8184C95.0684-63.8184 95.752-64.4531 95.752-65.3809C95.752-66.3086 95.0684-66.9922 94.1895-66.9922L43.5059-66.9922C42.627-66.9922 41.9434-66.3086 41.9434-65.3809C41.9434-64.4531 42.627-63.8184 43.5059-63.8184ZM43.5059-43.7012L94.1895-43.7012C95.0684-43.7012 95.752-44.3848 95.752-45.3125C95.752-46.2402 95.0684-46.875 94.1895-46.875L43.5059-46.875C42.627-46.875 41.9434-46.2402 41.9434-45.3125C41.9434-44.3848 42.627-43.7012 43.5059-43.7012ZM15.1855-25.1953L26.0742-32.4707C28.0273-33.7891 27.9297-36.5723 26.0742-37.8906L15.1855-45.3125C12.6465-46.9727 10.0098-46.0938 10.0098-43.0176L10.0098-27.3926C10.0098-24.5117 12.793-23.584 15.1855-25.1953ZM43.5059-23.6328L94.1895-23.6328C95.0684-23.6328 95.752-24.2676 95.752-25.1953C95.752-26.123 95.0684-26.8066 94.1895-26.8066L43.5059-26.8066C42.627-26.8066 41.9434-26.123 41.9434-25.1953C41.9434-24.2676 42.627-23.6328 43.5059-23.6328ZM43.5059-3.51562L74.6582-3.51562C75.5371-3.51562 76.2207-4.19922 76.2207-5.12695C76.2207-6.05469 75.5371-6.68945 74.6582-6.68945L43.5059-6.68945C42.627-6.68945 41.9434-6.05469 41.9434-5.12695C41.9434-4.19922 42.627-3.51562 43.5059-3.51562Z"/>
  </g>
  <g id="Ultralight-S" transform="matrix(1 0 0 1 507.465 696)">
   <path d="M42.0898-64.3066L93.6523-64.3066C94.2871-64.3066 94.7266-64.7461 94.7266-65.3809C94.7266-66.0156 94.2871-66.4551 93.6523-66.4551L42.0898-66.4551C41.4551-66.4551 40.9668-66.0156 40.9668-65.3809C40.9668-64.7461 41.4551-64.3066 42.0898-64.3066ZM42.0898-44.1895L93.6523-44.1895C94.2871-44.1895 94.7266-44.6289 94.7266-45.2637C94.7266-45.8984 94.2871-46.3379 93.6523-46.3379L42.0898-46.3379C41.4551-46.3379 40.9668-45.8984 40.9668-45.2637C40.9668-44.6289 41.4551-44.1895 42.0898-44.1895ZM14.8438-25.7812L25.0488-32.6172C26.8555-33.8867 26.8066-36.4746 25.0488-37.6953L14.8438-44.6289C12.5-46.2402 10.0098-45.3613 10.0098-42.4805L10.0098-27.8809C10.0098-25.1465 12.5977-24.3164 14.8438-25.7812ZM42.0898-24.0723L93.6523-24.0723C94.2871-24.0723 94.7266-24.5117 94.7266-25.1465C94.7266-25.7812 94.2871-26.2695 93.6523-26.2695L42.0898-26.2695C41.4551-26.2695 40.9668-25.7812 40.9668-25.1465C40.9668-24.5117 41.4551-24.0723 42.0898-24.0723ZM42.0898-3.95508L74.1211-3.95508C74.7559-3.95508 75.1953-4.39453 75.1953-5.0293C75.1953-5.71289 74.7559-6.15234 74.1211-6.15234L42.0898-6.15234C41.4551-6.15234 40.9668-5.71289 40.9668-5.0293C40.9668-4.39453 41.4551-3.95508 42.0898-3.95508Z"/>
  </g>
 </g>
</svg>
